<svg width="153" height="30" viewBox="0 0 153 30" fill="none" xmlns="http://www.w3.org/2000/svg">
<path d="M11.8971 1.5614C11.376 1.56504 10.8616 1.6391 10.3623 1.78834C9.86695 1.93658 9.41062 2.15144 8.99648 2.42508C9.44895 3.5748 10.604 5.03426 11.942 6.28013C13.339 7.58103 14.9408 8.68629 15.9753 9.18474L15.9874 9.1906L15.9993 9.19664C16.9499 9.68502 17.6229 10.4536 18.0114 11.3016C18.2616 11.8475 18.4073 12.4194 18.4923 13.0008C19.254 12.4066 20.057 11.9309 20.8733 11.5856C20.8112 10.5127 20.5752 9.38771 20.1453 8.26125C19.2438 5.89875 17.6692 3.99679 15.8859 2.83687C14.6041 2.0032 13.2287 1.55215 11.8971 1.5614ZM7.42002 4.04021C7.12043 4.5051 6.87475 5.02342 6.68807 5.58633C6.06463 7.46566 6.1152 9.82312 7.01678 12.1857C7.5624 13.6156 8.35488 14.8764 9.2908 15.9064C10.2128 16.1823 11.1248 16.6085 11.9814 17.1868C12.6433 17.6337 13.2331 18.1453 13.7442 18.7016C13.911 18.7421 14.0779 18.7767 14.2446 18.8039C14.5622 17.9755 14.9744 17.1513 15.4823 16.3518C15.7897 15.8675 16.1264 15.4027 16.4907 14.9597C16.495 14.6555 16.4925 14.3607 16.478 14.0793C16.4388 13.3182 16.3169 12.6672 16.0937 12.1801C15.8705 11.6929 15.5798 11.3526 15.0354 11.073L15.0595 11.0848C13.719 10.4388 12.045 9.25834 10.5044 7.82379C9.27979 6.68355 8.14377 5.40638 7.42002 4.04021ZM23.8117 11.9928C23.0203 11.9993 22.1831 12.1831 21.336 12.5347C19.529 13.2848 17.7146 14.8052 16.3726 16.9174C15.686 17.9979 15.1927 19.1246 14.8859 20.2293C16.09 22.2494 16.3857 24.57 15.5183 26.5188C15.6586 26.7191 15.8151 26.9075 15.9862 27.0821C17.2545 25.9879 18.716 25.0815 19.7548 24.1508C20.3225 23.6422 20.7524 23.1385 20.9913 22.659C21.2302 22.1793 21.3124 21.7392 21.1882 21.14L21.1809 21.1052L21.1761 21.07C20.7043 17.6544 21.5321 15.647 22.7385 14.419C23.7086 13.4317 24.6742 12.9117 25.3403 12.2252C24.859 12.0652 24.3459 11.9885 23.8117 11.9928ZM27.1367 13.3963C26.1623 14.6075 24.9609 15.1669 24.2432 15.8975C23.4184 16.737 22.849 17.7476 23.2638 20.7668C23.4635 21.7934 23.288 22.7793 22.8795 23.5994C22.4637 24.4342 21.8418 25.113 21.1624 25.7218C20.1304 26.6465 18.94 27.4383 17.9441 28.2108C19.0735 28.5042 20.3593 28.3622 21.6686 27.8187C23.4756 27.0687 25.2902 25.5482 26.6321 23.436C27.9742 21.3238 28.5797 19.0352 28.4911 17.0808C28.4234 15.5861 27.9618 14.3053 27.1368 13.3964L27.1367 13.3963ZM23.2638 20.7668C23.2603 20.7484 23.2574 20.7301 23.2536 20.7116L23.2658 20.7815C23.2652 20.7766 23.2646 20.7717 23.2638 20.7668H23.2638ZM6.84445 16.5819C5.76732 16.5721 4.75266 16.8083 3.89865 17.2737C3.90451 17.2738 3.90961 17.2743 3.91547 17.2744C4.42113 17.2923 5.05594 17.2327 5.78684 17.3324C6.51768 17.4323 7.37385 17.7642 8.02242 18.498C8.67105 19.2319 9.11578 20.2723 9.42557 21.7664L9.43289 21.8012L9.4377 21.8365C9.58143 22.879 10.2455 23.4821 11.3967 24.0468C12.379 24.5286 13.6401 24.8726 14.8372 25.2229C15.3733 22.8206 14.1012 19.8905 11.3913 18.061C9.93006 17.0745 8.32834 16.5953 6.84457 16.5819H6.84445ZM2.09379 19.0104C0.613126 21.561 1.80059 25.3036 5.02969 27.4837C8.20693 29.6289 12.0484 29.3749 13.8973 27.1498C12.817 26.8419 11.5924 26.4923 10.4678 25.9407C9.01758 25.2294 7.63535 24.0341 7.35645 22.1777C7.09084 20.9062 6.73594 20.2277 6.4418 19.8949C6.14648 19.5605 5.91621 19.4792 5.50137 19.4227C5.08652 19.3659 4.51641 19.4064 3.84123 19.3826C3.31506 19.3641 2.69772 19.2886 2.09379 19.0104V19.0104ZM7.3565 22.1777C7.35779 22.1835 7.35908 22.1889 7.36031 22.1948L7.34818 22.1248C7.35064 22.1426 7.35387 22.1599 7.35656 22.1777L7.3565 22.1777Z" fill="#5750F1"/>
<path d="M33.0781 14.5039C33.0781 11.4883 33.8867 9.16406 35.5039 7.53125C36.9102 6.10938 38.6992 5.39844 40.8711 5.39844C43.7773 5.39844 45.9023 6.35156 47.2461 8.25781C47.9883 9.32812 48.3867 10.4023 48.4414 11.4805H44.832C44.5977 10.6523 44.2969 10.0273 43.9297 9.60547C43.2734 8.85547 42.3008 8.48047 41.0117 8.48047C39.6992 8.48047 38.6641 9.01172 37.9062 10.0742C37.1484 11.1289 36.7695 12.625 36.7695 14.5625C36.7695 16.5 37.168 17.9531 37.9648 18.9219C38.7695 19.8828 39.7891 20.3633 41.0234 20.3633C42.2891 20.3633 43.2539 19.9492 43.918 19.1211C44.2852 18.6758 44.5898 18.0078 44.832 17.1172H48.4062C48.0938 19 47.293 20.5312 46.0039 21.7109C44.7227 22.8906 43.0781 23.4805 41.0703 23.4805C38.5859 23.4805 36.6328 22.6836 35.2109 21.0898C33.7891 19.4883 33.0781 17.293 33.0781 14.5039ZM56.6328 20.6445C57.6094 20.6445 58.3594 20.2969 58.8828 19.6016C59.4062 18.9062 59.668 17.918 59.668 16.6367C59.668 15.3555 59.4062 14.3711 58.8828 13.6836C58.3594 12.9883 57.6094 12.6406 56.6328 12.6406C55.6562 12.6406 54.9023 12.9883 54.3711 13.6836C53.8477 14.3711 53.5859 15.3555 53.5859 16.6367C53.5859 17.918 53.8477 18.9062 54.3711 19.6016C54.9023 20.2969 55.6562 20.6445 56.6328 20.6445ZM63.1719 16.6367C63.1719 18.5117 62.6328 20.1172 61.5547 21.4531C60.4766 22.7812 58.8398 23.4453 56.6445 23.4453C54.4492 23.4453 52.8125 22.7812 51.7344 21.4531C50.6562 20.1172 50.1172 18.5117 50.1172 16.6367C50.1172 14.793 50.6562 13.1953 51.7344 11.8438C52.8125 10.4922 54.4492 9.81641 56.6445 9.81641C58.8398 9.81641 60.4766 10.4922 61.5547 11.8438C62.6328 13.1953 63.1719 14.793 63.1719 16.6367ZM70.2852 5.55078C70.4961 5.55078 70.6875 5.55859 70.8594 5.57422C71.0312 5.58203 71.2656 5.59766 71.5625 5.62109V8.33984C71.375 8.31641 71.0586 8.30078 70.6133 8.29297C70.1758 8.27734 69.8711 8.375 69.6992 8.58594C69.5352 8.78906 69.4531 9.01562 69.4531 9.26562C69.4531 9.51562 69.4531 9.875 69.4531 10.3438H71.6445V12.6992H69.4531V23H66.125V12.6992H64.2617V10.3438H66.0898V9.52344C66.0898 8.15625 66.3203 7.21484 66.7812 6.69922C67.2656 5.93359 68.4336 5.55078 70.2852 5.55078ZM78.2773 5.55078C78.4883 5.55078 78.6797 5.55859 78.8516 5.57422C79.0234 5.58203 79.2578 5.59766 79.5547 5.62109V8.33984C79.3672 8.31641 79.0508 8.30078 78.6055 8.29297C78.168 8.27734 77.8633 8.375 77.6914 8.58594C77.5273 8.78906 77.4453 9.01562 77.4453 9.26562C77.4453 9.51562 77.4453 9.875 77.4453 10.3438H79.6367V12.6992H77.4453V23H74.1172V12.6992H72.2539V10.3438H74.082V9.52344C74.082 8.15625 74.3125 7.21484 74.7734 6.69922C75.2578 5.93359 76.4258 5.55078 78.2773 5.55078ZM86.5977 12.6406C85.8242 12.6406 85.2227 12.8828 84.793 13.3672C84.3711 13.8516 84.1055 14.5078 83.9961 15.3359H89.1875C89.1328 14.4531 88.8633 13.7852 88.3789 13.332C87.9023 12.8711 87.3086 12.6406 86.5977 12.6406ZM86.5977 9.88672C87.6602 9.88672 88.6172 10.0859 89.4688 10.4844C90.3203 10.8828 91.0234 11.5117 91.5781 12.3711C92.0781 13.1289 92.4023 14.0078 92.5508 15.0078C92.6367 15.5938 92.6719 16.4375 92.6562 17.5391H83.9141C83.9609 18.8203 84.3633 19.7188 85.1211 20.2344C85.582 20.5547 86.1367 20.7148 86.7852 20.7148C87.4727 20.7148 88.0312 20.5195 88.4609 20.1289C88.6953 19.918 88.9023 19.625 89.082 19.25H92.4922C92.4062 20.0078 92.0117 20.7773 91.3086 21.5586C90.2148 22.8008 88.6836 23.4219 86.7148 23.4219C85.0898 23.4219 83.6562 22.8984 82.4141 21.8516C81.1719 20.8047 80.5508 19.1016 80.5508 16.7422C80.5508 14.5312 81.1094 12.8359 82.2266 11.6562C83.3516 10.4766 84.8086 9.88672 86.5977 9.88672ZM99.957 12.6406C99.1836 12.6406 98.582 12.8828 98.1523 13.3672C97.7305 13.8516 97.4648 14.5078 97.3555 15.3359H102.547C102.492 14.4531 102.223 13.7852 101.738 13.332C101.262 12.8711 100.668 12.6406 99.957 12.6406ZM99.957 9.88672C101.02 9.88672 101.977 10.0859 102.828 10.4844C103.68 10.8828 104.383 11.5117 104.938 12.3711C105.438 13.1289 105.762 14.0078 105.91 15.0078C105.996 15.5938 106.031 16.4375 106.016 17.5391H97.2734C97.3203 18.8203 97.7227 19.7188 98.4805 20.2344C98.9414 20.5547 99.4961 20.7148 100.145 20.7148C100.832 20.7148 101.391 20.5195 101.82 20.1289C102.055 19.918 102.262 19.625 102.441 19.25H105.852C105.766 20.0078 105.371 20.7773 104.668 21.5586C103.574 22.8008 102.043 23.4219 100.074 23.4219C98.4492 23.4219 97.0156 22.8984 95.7734 21.8516C94.5312 20.8047 93.9102 19.1016 93.9102 16.7422C93.9102 14.5312 94.4688 12.8359 95.5859 11.6562C96.7109 10.4766 98.168 9.88672 99.957 9.88672ZM112.051 8.72656V20H115.379C117.082 20 118.27 19.1602 118.941 17.4805C119.309 16.5586 119.492 15.4609 119.492 14.1875C119.492 12.4297 119.215 11.082 118.66 10.1445C118.113 9.19922 117.02 8.72656 115.379 8.72656H112.051ZM115.988 5.72656C117.059 5.74219 117.949 5.86719 118.66 6.10156C119.871 6.5 120.852 7.23047 121.602 8.29297C122.203 9.15234 122.613 10.082 122.832 11.082C123.051 12.082 123.16 13.0352 123.16 13.9414C123.16 16.2383 122.699 18.1836 121.777 19.7773C120.527 21.9258 118.598 23 115.988 23H108.547V5.72656H115.988ZM131.352 20.6445C132.328 20.6445 133.078 20.2969 133.602 19.6016C134.125 18.9062 134.387 17.918 134.387 16.6367C134.387 15.3555 134.125 14.3711 133.602 13.6836C133.078 12.9883 132.328 12.6406 131.352 12.6406C130.375 12.6406 129.621 12.9883 129.09 13.6836C128.566 14.3711 128.305 15.3555 128.305 16.6367C128.305 17.918 128.566 18.9062 129.09 19.6016C129.621 20.2969 130.375 20.6445 131.352 20.6445ZM137.891 16.6367C137.891 18.5117 137.352 20.1172 136.273 21.4531C135.195 22.7812 133.559 23.4453 131.363 23.4453C129.168 23.4453 127.531 22.7812 126.453 21.4531C125.375 20.1172 124.836 18.5117 124.836 16.6367C124.836 14.793 125.375 13.1953 126.453 11.8438C127.531 10.4922 129.168 9.81641 131.363 9.81641C133.559 9.81641 135.195 10.4922 136.273 11.8438C137.352 13.1953 137.891 14.793 137.891 16.6367ZM147.922 14.8086C147.859 14.332 147.699 13.9023 147.441 13.5195C147.066 13.0039 146.484 12.7461 145.695 12.7461C144.57 12.7461 143.801 13.3047 143.387 14.4219C143.168 15.0156 143.059 15.8047 143.059 16.7891C143.059 17.7266 143.168 18.4805 143.387 19.0508C143.785 20.1133 144.535 20.6445 145.637 20.6445C146.418 20.6445 146.973 20.4336 147.301 20.0117C147.629 19.5898 147.828 19.043 147.898 18.3711H151.309C151.23 19.3867 150.863 20.3477 150.207 21.2539C149.16 22.7148 147.609 23.4453 145.555 23.4453C143.5 23.4453 141.988 22.8359 141.02 21.6172C140.051 20.3984 139.566 18.8164 139.566 16.8711C139.566 14.6758 140.102 12.9688 141.172 11.75C142.242 10.5312 143.719 9.92188 145.602 9.92188C147.203 9.92188 148.512 10.2812 149.527 11C150.551 11.7188 151.156 12.9883 151.344 14.8086H147.922Z" fill="white"/>
</svg>
