<svg width="30" height="30" viewBox="0 0 30 30" fill="none" xmlns="http://www.w3.org/2000/svg">
<path d="M11.8971 1.5614C11.376 1.56504 10.8616 1.6391 10.3623 1.78834C9.86695 1.93658 9.41062 2.15144 8.99648 2.42508C9.44895 3.5748 10.604 5.03426 11.942 6.28013C13.339 7.58103 14.9408 8.68629 15.9753 9.18474L15.9874 9.1906L15.9993 9.19664C16.9499 9.68502 17.6229 10.4536 18.0114 11.3016C18.2616 11.8475 18.4073 12.4194 18.4923 13.0008C19.254 12.4066 20.057 11.9309 20.8733 11.5856C20.8112 10.5127 20.5752 9.38771 20.1453 8.26125C19.2438 5.89875 17.6692 3.99679 15.8859 2.83687C14.6041 2.0032 13.2287 1.55215 11.8971 1.5614ZM7.42002 4.04021C7.12043 4.5051 6.87475 5.02342 6.68807 5.58633C6.06463 7.46566 6.1152 9.82312 7.01678 12.1857C7.5624 13.6156 8.35488 14.8764 9.2908 15.9064C10.2128 16.1823 11.1248 16.6085 11.9814 17.1868C12.6433 17.6337 13.2331 18.1453 13.7442 18.7016C13.911 18.7421 14.0779 18.7767 14.2446 18.8039C14.5622 17.9755 14.9744 17.1513 15.4823 16.3518C15.7897 15.8675 16.1264 15.4027 16.4907 14.9597C16.495 14.6555 16.4925 14.3607 16.478 14.0793C16.4388 13.3182 16.3169 12.6672 16.0937 12.1801C15.8705 11.6929 15.5798 11.3526 15.0354 11.073L15.0595 11.0848C13.719 10.4388 12.045 9.25834 10.5044 7.82379C9.27979 6.68355 8.14377 5.40638 7.42002 4.04021ZM23.8117 11.9928C23.0203 11.9993 22.1831 12.1831 21.336 12.5347C19.529 13.2848 17.7146 14.8052 16.3726 16.9174C15.686 17.9979 15.1927 19.1246 14.8859 20.2293C16.09 22.2494 16.3857 24.57 15.5183 26.5188C15.6586 26.7191 15.8151 26.9075 15.9862 27.0821C17.2545 25.9879 18.716 25.0815 19.7548 24.1508C20.3225 23.6422 20.7524 23.1386 20.9913 22.659C21.2302 22.1793 21.3124 21.7392 21.1882 21.14L21.1809 21.1052L21.1761 21.07C20.7043 17.6544 21.5321 15.647 22.7385 14.419C23.7086 13.4317 24.6742 12.9117 25.3403 12.2252C24.859 12.0652 24.3459 11.9885 23.8117 11.9928ZM27.1367 13.3963C26.1623 14.6075 24.9609 15.1669 24.2432 15.8975C23.4184 16.737 22.849 17.7476 23.2638 20.7669C23.4635 21.7934 23.288 22.7793 22.8795 23.5994C22.4637 24.4342 21.8418 25.113 21.1624 25.7218C20.1304 26.6465 18.94 27.4383 17.9441 28.2108C19.0735 28.5042 20.3593 28.3622 21.6686 27.8187C23.4756 27.0687 25.2902 25.5482 26.6321 23.436C27.9742 21.3238 28.5797 19.0352 28.4912 17.0808C28.4234 15.5861 27.9618 14.3053 27.1368 13.3964L27.1367 13.3963ZM23.2638 20.7669C23.2603 20.7484 23.2574 20.7301 23.2536 20.7116L23.2658 20.7815C23.2652 20.7766 23.2646 20.7717 23.2638 20.7669H23.2638ZM6.84445 16.5819C5.76732 16.5721 4.75266 16.8083 3.89865 17.2737C3.90451 17.2738 3.90961 17.2743 3.91547 17.2744C4.42113 17.2923 5.05594 17.2327 5.78684 17.3324C6.51768 17.4323 7.37385 17.7642 8.02242 18.498C8.67105 19.2319 9.11578 20.2723 9.42557 21.7664L9.43289 21.8012L9.4377 21.8365C9.58143 22.879 10.2455 23.4821 11.3967 24.0468C12.379 24.5286 13.6401 24.8726 14.8372 25.2229C15.3733 22.8206 14.1012 19.8905 11.3913 18.061C9.93006 17.0745 8.32834 16.5953 6.84457 16.5819H6.84445ZM2.09379 19.0104C0.613126 21.561 1.80059 25.3036 5.02969 27.4837C8.20693 29.6289 12.0484 29.3749 13.8973 27.1498C12.817 26.8419 11.5924 26.4923 10.4678 25.9407C9.01758 25.2294 7.63535 24.0341 7.35645 22.1777C7.09084 20.9062 6.73594 20.2277 6.4418 19.8949C6.14648 19.5605 5.91621 19.4792 5.50137 19.4227C5.08652 19.3659 4.51641 19.4064 3.84123 19.3826C3.31506 19.3641 2.69772 19.2886 2.09379 19.0104V19.0104ZM7.3565 22.1777C7.35779 22.1835 7.35908 22.1889 7.36031 22.1948L7.34818 22.1248C7.35064 22.1426 7.35387 22.1599 7.35656 22.1777L7.3565 22.1777Z" fill="#5750F1"/>
</svg>
